<?xml version="1.0" encoding="utf-8"?>
<!-- Generator: Adobe Illustrator 16.0.0, SVG Export Plug-In . SVG Version: 6.00 Build 0)  -->
<!DOCTYPE svg PUBLIC "-//W3C//DTD SVG 1.1//EN" "http://www.w3.org/Graphics/SVG/1.1/DTD/svg11.dtd">
<svg version="1.1" xmlns="http://www.w3.org/2000/svg" xmlns:xlink="http://www.w3.org/1999/xlink" x="0px" y="0px" width="42.52px"
	 height="42.52px" viewBox="0 0 42.52 42.52" enable-background="new 0 0 42.52 42.52" xml:space="preserve">
<g id="Calque_1">
	<path fill="#E44D26" d="M56.838,72.789l-35.63,9.876l-35.535-9.867l-7.917-88.807h87.009"/>
	<path fill="#F16529" d="M56.828-8.754H21.259v83.868l28.793-7.979"/>
	<path fill="#FFFFFF" d="M48.513,2.139H21.225v10.894h26.312 M46.551,24.188H21.225v39.633l22.335-6.194 M21.225,35.081h13.428
		l-1.266,14.131l-12.162,3.28"/>
	<path fill="#EBEBEB" d="M-3.121,35.081H21.25V24.188H6.833L5.841,13.032H21.25V2.139H-6.062 M-1.111,57.634l22.335,6.187
		l0.035-0.008V52.481l-0.035,0.012L9.079,49.22l-0.775-8.692H-2.632"/>
	<path d="M-3.547-40.145v5.471h-5.064v-5.471 M-14.144-40.145v16.557h5.532v-5.542h5.064v5.542h5.534v-16.557 M4.388-40.145v5.488
		h0.01h4.873v11.069h5.532v-11.069h4.873v-5.488 M34.961-40.145l-3.539,5.818l-3.551-5.818 M22.103-40.145v16.557h5.413v-8.206
		l3.81,5.89h0.097l3.81-5.89v8.206h5.507v-16.557 M43.497-40.145v16.557h13.321v-5.472h-7.787v-11.085"/>
</g>
<g id="Calque_2" display="none">
	<g display="inline">
		<path fill-rule="evenodd" clip-rule="evenodd" fill="#FEFEFD" d="M-0.002,21.244c0-7.025,0-14.051-0.004-21.078
			C-0.006,0.031,0.025,0,0.161,0c14.063,0.003,28.128,0.003,42.191,0c0.137,0,0.167,0.031,0.167,0.167
			c-0.004,14.064-0.004,28.128,0,42.193c0,0.135-0.03,0.166-0.167,0.166c-14.063-0.004-28.128-0.004-42.191,0
			c-0.136,0-0.167-0.031-0.167-0.166C-0.002,35.323-0.002,28.281-0.002,21.244z M21.238,8.348c-4.88,0-9.759,0-14.638,0
			c-0.097,0-0.194,0.005-0.291-0.001C6.182,8.337,6.161,8.396,6.172,8.511c0.04,0.466,0.077,0.934,0.105,1.4
			c0.025,0.428,0.065,0.855,0.121,1.277c0.074,0.569,0.059,1.141,0.123,1.709c0.05,0.445,0.132,0.893,0.107,1.345
			c-0.001,0.018,0.006,0.036,0.01,0.053c0.111,0.478,0.092,0.969,0.135,1.453c0.042,0.478,0.134,0.955,0.107,1.439
			c-0.001,0.018,0.004,0.036,0.007,0.054c0.073,0.486,0.14,0.974,0.152,1.465c0.003,0.084,0.001,0.17,0.014,0.253
			c0.124,0.778,0.119,1.569,0.228,2.349c0.041,0.291,0.033,0.586,0.068,0.881c0.078,0.66,0.122,1.326,0.178,1.99
			c0.055,0.646,0.128,1.291,0.174,1.936c0.033,0.469,0.085,0.934,0.104,1.4c0.004,0.104,0.004,0.207,0.022,0.307
			c0.08,0.438,0.102,0.885,0.127,1.326c0.035,0.611,0.124,1.219,0.118,1.834c0,0.018,0.001,0.035,0.004,0.053
			c0.129,0.74,0.143,1.494,0.22,2.238c0.064,0.625,0.128,1.254,0.174,1.881c0.052,0.707,0.114,1.412,0.169,2.121
			c0.041,0.525,0.132,1.051,0.117,1.582c0,0.02,0.002,0.037,0.002,0.055C8.763,38.965,8.797,39.002,8.838,39
			c0.108-0.002,0.19,0.066,0.287,0.092c0.241,0.066,0.481,0.133,0.724,0.191c0.234,0.059,0.457,0.172,0.692,0.215
			c0.375,0.072,0.735,0.195,1.1,0.297c0.384,0.104,0.774,0.193,1.151,0.326c0.245,0.086,0.504,0.119,0.749,0.211
			c0.221,0.084,0.457,0.131,0.687,0.193c0.362,0.1,0.727,0.188,1.085,0.297c0.261,0.082,0.527,0.143,0.789,0.219
			c0.239,0.068,0.475,0.146,0.719,0.203c0.253,0.059,0.496,0.174,0.751,0.215c0.367,0.061,0.707,0.205,1.066,0.291
			c0.371,0.09,0.739,0.209,1.109,0.311c0.331,0.092,0.663,0.184,0.993,0.277c0.259,0.074,0.5,0.205,0.788,0.072
			c0.236-0.107,0.505-0.135,0.754-0.211c0.34-0.102,0.679-0.211,1.023-0.293c0.254-0.063,0.499-0.152,0.756-0.213
			c0.245-0.057,0.486-0.158,0.733-0.211c0.362-0.074,0.711-0.195,1.065-0.291c0.389-0.104,0.78-0.201,1.163-0.326
			c0.227-0.074,0.463-0.115,0.687-0.186c0.242-0.074,0.486-0.154,0.731-0.215c0.357-0.086,0.713-0.191,1.065-0.293
			c0.55-0.158,1.107-0.303,1.658-0.471c0.342-0.105,0.696-0.188,1.042-0.285c0.405-0.111,0.817-0.211,1.216-0.344
			c0.099-0.033,0.267-0.01,0.275-0.195c0.012-0.273,0.032-0.549,0.058-0.822c0.06-0.676,0.108-1.354,0.188-2.027
			c0.039-0.32,0.044-0.646,0.066-0.969c0.055-0.811,0.178-1.615,0.201-2.426c0.001-0.02,0.001-0.037,0.004-0.055
			c0.101-0.479,0.126-0.965,0.152-1.449c0.025-0.475,0.125-0.943,0.098-1.42c0-0.012,0-0.023,0.004-0.035
			c0.131-0.432,0.046-0.885,0.148-1.324c0.063-0.264,0.044-0.547,0.067-0.82c0.058-0.695,0.101-1.391,0.191-2.082
			c0.036-0.273,0.021-0.549,0.063-0.824c0.069-0.438,0.039-0.887,0.089-1.33c0.074-0.645,0.117-1.291,0.182-1.938
			c0.059-0.586,0.129-1.172,0.163-1.759c0.034-0.552,0.085-1.104,0.122-1.656c0.034-0.536,0.094-1.076,0.141-1.612
			c0.043-0.489,0.123-0.979,0.107-1.472c-0.002-0.06-0.005-0.124,0.011-0.181c0.107-0.441,0.058-0.9,0.147-1.345
			c0.054-0.267,0.042-0.547,0.064-0.821c0.058-0.689,0.103-1.38,0.19-2.068c0.04-0.308,0.018-0.62,0.067-0.932
			c0.053-0.318,0.027-0.65,0.09-0.971c0.03-0.154-0.029-0.194-0.183-0.194C31.166,8.348,26.201,8.347,21.238,8.348z M23.723,0.044
			c-0.821,0-1.644,0.005-2.466-0.004c-0.176-0.002-0.208,0.058-0.207,0.216c0.007,1.028,0.007,2.055-0.001,3.083
			c0,0.153,0.04,0.191,0.19,0.19c1.052-0.006,2.104-0.004,3.155-0.003c0.156,0,0.363-0.05,0.455,0.029
			c0.095,0.084,0.014,0.298,0.031,0.454c0.02,0.165-0.047,0.197-0.203,0.196c-1.148-0.008-2.297-0.002-3.445-0.007
			c-0.139-0.001-0.188,0.033-0.184,0.18c0.012,0.375,0.01,0.75,0.002,1.124c-0.004,0.157,0.049,0.209,0.21,0.209
			c1.645-0.005,3.288-0.004,4.933,0c0.14,0,0.198-0.042,0.197-0.185c-0.002-1.052-0.002-2.104,0-3.155
			c0.001-0.132-0.054-0.177-0.183-0.176c-1.058,0.004-2.115,0.003-3.173,0.004c-0.472,0-0.465,0-0.47-0.477
			c-0.002-0.143,0.046-0.167,0.175-0.167c1.148,0.005,2.297,0,3.445,0.007c0.165,0.001,0.21-0.057,0.207-0.21
			c-0.007-0.375-0.007-0.75,0-1.124c0.002-0.138-0.038-0.188-0.186-0.187C25.38,0.047,24.551,0.044,23.723,0.044z M20.25,2.878
			c0-0.169,0-0.339,0.001-0.508c0-0.707-0.001-1.414,0.001-2.121c0.001-0.129-0.014-0.215-0.185-0.209
			c-0.374,0.013-0.75,0.016-1.124-0.001c-0.173-0.008-0.194,0.057-0.194,0.203c0.004,1.257,0,2.515,0.006,3.771
			c0,0.149-0.038,0.193-0.19,0.192c-0.707-0.008-1.414,0-2.121-0.008c-0.153-0.002-0.202,0.043-0.198,0.195
			c0.009,0.375,0.006,0.749,0.002,1.124c-0.001,0.145,0.054,0.195,0.203,0.194c1.19-0.005,2.381-0.007,3.572,0.002
			c0.177,0,0.229-0.06,0.229-0.224C20.249,4.618,20.25,3.748,20.25,2.878z"/>
		<path fill-rule="evenodd" clip-rule="evenodd" fill="#E8C932" d="M21.238,8.348c4.963,0,9.928,0,14.892-0.003
			c0.153,0,0.213,0.04,0.183,0.194c-0.063,0.321-0.037,0.653-0.09,0.971c-0.05,0.313-0.027,0.624-0.067,0.932
			c-0.088,0.688-0.133,1.378-0.19,2.068c-0.022,0.274-0.011,0.554-0.064,0.821c-0.09,0.445-0.04,0.903-0.147,1.345
			c-0.016,0.057-0.013,0.121-0.011,0.181c0.016,0.494-0.064,0.983-0.107,1.472c-0.047,0.537-0.106,1.076-0.141,1.612
			c-0.037,0.552-0.088,1.104-0.122,1.656c-0.034,0.587-0.104,1.173-0.163,1.759c-0.064,0.646-0.107,1.293-0.182,1.938
			c-0.05,0.443-0.02,0.893-0.089,1.33c-0.042,0.275-0.026,0.551-0.063,0.824c-0.091,0.691-0.134,1.387-0.191,2.082
			c-0.023,0.273-0.005,0.557-0.067,0.82c-0.103,0.439-0.018,0.893-0.148,1.324c-0.004,0.012-0.004,0.023-0.004,0.035
			c0.027,0.477-0.072,0.945-0.098,1.42c-0.026,0.484-0.052,0.971-0.152,1.449c-0.003,0.018-0.003,0.035-0.004,0.055
			c-0.023,0.811-0.146,1.615-0.201,2.426c-0.022,0.322-0.027,0.648-0.066,0.969c-0.08,0.674-0.129,1.352-0.188,2.027
			c-0.025,0.273-0.046,0.549-0.058,0.822c-0.009,0.186-0.177,0.162-0.275,0.195c-0.398,0.133-0.811,0.232-1.216,0.344
			c-0.346,0.098-0.7,0.18-1.042,0.285c-0.551,0.168-1.108,0.313-1.658,0.471c-0.353,0.102-0.708,0.207-1.065,0.293
			c-0.245,0.061-0.489,0.141-0.731,0.215c-0.224,0.07-0.46,0.111-0.687,0.186c-0.383,0.125-0.774,0.223-1.163,0.326
			c-0.354,0.096-0.703,0.217-1.065,0.291c-0.247,0.053-0.488,0.154-0.733,0.211c-0.257,0.061-0.502,0.15-0.756,0.213
			c-0.345,0.082-0.684,0.191-1.023,0.293c-0.249,0.076-0.518,0.104-0.754,0.211c-0.288,0.133-0.529,0.002-0.788-0.072
			c-0.33-0.094-0.662-0.186-0.993-0.277c-0.37-0.102-0.738-0.221-1.109-0.311c-0.359-0.086-0.699-0.23-1.066-0.291
			c-0.255-0.041-0.498-0.156-0.751-0.215c-0.244-0.057-0.48-0.135-0.719-0.203c-0.262-0.076-0.528-0.137-0.789-0.219
			c-0.358-0.109-0.723-0.197-1.085-0.297c-0.229-0.063-0.465-0.109-0.687-0.193c-0.245-0.092-0.504-0.125-0.749-0.211
			c-0.376-0.133-0.767-0.223-1.151-0.326c-0.365-0.102-0.725-0.225-1.1-0.297c-0.235-0.043-0.458-0.156-0.692-0.215
			c-0.243-0.059-0.483-0.125-0.724-0.191C9.028,39.067,8.946,38.998,8.838,39c-0.041,0.002-0.075-0.035-0.078-0.086
			c0-0.018-0.003-0.035-0.002-0.055c0.015-0.531-0.076-1.057-0.117-1.582c-0.055-0.709-0.117-1.414-0.169-2.121
			c-0.046-0.627-0.109-1.256-0.174-1.881c-0.077-0.744-0.091-1.498-0.22-2.238c-0.003-0.018-0.005-0.035-0.004-0.053
			c0.006-0.615-0.083-1.223-0.118-1.834c-0.025-0.441-0.047-0.889-0.127-1.326c-0.018-0.1-0.018-0.203-0.022-0.307
			c-0.019-0.467-0.071-0.932-0.104-1.4c-0.045-0.645-0.119-1.289-0.174-1.936c-0.056-0.664-0.1-1.33-0.178-1.99
			c-0.035-0.295-0.028-0.59-0.068-0.881c-0.109-0.78-0.104-1.571-0.228-2.349c-0.013-0.083-0.011-0.169-0.014-0.253
			c-0.013-0.492-0.08-0.979-0.152-1.465c-0.002-0.018-0.008-0.036-0.007-0.054c0.026-0.484-0.065-0.961-0.107-1.439
			c-0.042-0.484-0.024-0.976-0.135-1.453c-0.004-0.018-0.012-0.036-0.01-0.053c0.025-0.453-0.057-0.9-0.107-1.345
			c-0.064-0.569-0.049-1.141-0.123-1.709c-0.055-0.422-0.095-0.85-0.121-1.277c-0.028-0.467-0.065-0.934-0.105-1.4
			C6.161,8.396,6.182,8.337,6.31,8.346c0.097,0.007,0.193,0.001,0.291,0.001C11.479,8.348,16.358,8.348,21.238,8.348z
			 M22.447,35.844c0.1-0.102,0.235-0.051,0.354-0.088c0.281-0.09,0.561-0.186,0.851-0.25c0.13-0.027,0.264-0.059,0.394-0.1
			c0.367-0.109,0.737-0.215,1.106-0.318c0.239-0.066,0.48-0.125,0.719-0.191c0.249-0.07,0.495-0.15,0.745-0.215
			c0.259-0.064,0.521-0.125,0.772-0.205c0.359-0.115,0.725-0.197,1.084-0.305c0.255-0.078,0.521-0.131,0.772-0.207
			c0.243-0.072,0.485-0.154,0.73-0.211c0.173-0.041,0.228-0.115,0.238-0.27c0.017-0.281,0.034-0.561,0.061-0.842
			c0.057-0.605,0.136-1.207,0.182-1.811c0.05-0.646,0.1-1.291,0.169-1.936c0.067-0.633,0.089-1.268,0.174-1.898
			c0.04-0.297,0.036-0.598,0.075-0.896c0.055-0.426,0.132-0.854,0.114-1.287c-0.002-0.066-0.005-0.135,0.007-0.199
			c0.085-0.51,0.141-1.021,0.166-1.537c0.004-0.102-0.037-0.125-0.129-0.117c-0.153,0.012-0.307,0.045-0.456,0.064
			c-0.375,0.053-0.745,0.129-1.119,0.178c-0.356,0.045-0.707,0.105-1.061,0.16c-0.481,0.074-0.962,0.184-1.454,0.193
			c-0.048,0.002-0.098,0.004-0.142,0.02c-0.293,0.096-0.604,0.08-0.899,0.15c-0.151,0.037-0.191-0.027-0.19-0.18
			c0.006-1.801,0.005-3.603,0-5.404c-0.001-0.151,0.039-0.191,0.19-0.191c1.753,0.006,3.507,0.004,5.26,0.004
			c0.373,0,0.375,0,0.418-0.357c0.055-0.481,0.132-0.961,0.148-1.443c0.014-0.429,0.092-0.849,0.106-1.277
			c0.006-0.22,0.013-0.23-0.203-0.23c-1.463,0-2.926,0-4.389,0c-1.523,0-3.046,0-4.57,0c-0.262,0-0.262-0.002-0.262,0.263
			c0,1.657,0,3.313,0,4.97c0,2.485,0.002,4.97-0.005,7.454c-0.001,0.186,0.063,0.25,0.224,0.195
			c0.258-0.088,0.529-0.072,0.792-0.127c0.459-0.1,0.932-0.141,1.397-0.203c0.054-0.008,0.109-0.012,0.16-0.025
			c0.262-0.068,0.526-0.119,0.795-0.143c0.292-0.027,0.577-0.096,0.866-0.133c0.285-0.037,0.563-0.121,0.853-0.129
			c0.082-0.002,0.165,0.002,0.229-0.061c0.053,0.07,0.039,0.139,0.033,0.201c-0.04,0.43-0.095,0.857-0.139,1.285
			c-0.055,0.527-0.126,1.057-0.171,1.586c-0.031,0.363-0.09,0.727-0.104,1.094c-0.002,0.057,0.002,0.123-0.079,0.145
			c-0.41,0.113-0.821,0.221-1.229,0.342c-0.249,0.074-0.509,0.117-0.754,0.199c-0.376,0.131-0.767,0.205-1.146,0.326
			c-0.219,0.066-0.453,0.094-0.665,0.174c-0.268,0.1-0.545,0.154-0.817,0.225c-0.183,0.049-0.246,0.115-0.245,0.301
			c0.007,1.01,0.004,2.018,0.005,3.029C22.411,35.688,22.395,35.76,22.447,35.844z M20.088,25.254c0-3.465-0.002-6.928,0.003-10.393
			c0-0.175-0.051-0.229-0.226-0.228c-0.968,0.007-1.935,0.006-2.902,0c-0.166-0.001-0.231,0.037-0.231,0.221
			c0.005,5.448,0.003,10.897,0.004,16.342c0,0.063,0,0.123,0,0.184c-0.001,0.064-0.041,0.09-0.097,0.066
			c-0.328-0.125-0.674-0.189-1.009-0.287c-0.246-0.072-0.49-0.148-0.739-0.205c-0.268-0.059-0.531-0.139-0.796-0.209
			c-0.371-0.098-0.743-0.203-1.113-0.307c-0.366-0.104-0.733-0.201-1.1-0.305c-0.263-0.07-0.526-0.143-0.79-0.213
			c-0.083-0.021-0.138-0.018-0.138,0.096c0.002,1.078,0.002,2.152,0,3.229c0,0.078,0.022,0.131,0.099,0.15
			c0.217,0.057,0.434,0.115,0.652,0.166c0.255,0.063,0.5,0.156,0.761,0.203c0.249,0.047,0.483,0.17,0.731,0.215
			c0.376,0.07,0.738,0.193,1.103,0.293c0.558,0.154,1.12,0.309,1.679,0.463c0.37,0.102,0.748,0.195,1.118,0.301
			c0.462,0.127,0.926,0.256,1.389,0.385c0.456,0.127,0.91,0.27,1.375,0.363c0.229,0.047,0.226,0.059,0.226-0.174
			C20.087,32.16,20.087,28.707,20.088,25.254z"/>
		<path fill-rule="evenodd" clip-rule="evenodd" fill="#070707" d="M23.723,0.044c0.828,0,1.657,0.003,2.484-0.003
			c0.147-0.001,0.188,0.049,0.186,0.187c-0.007,0.375-0.007,0.75,0,1.124c0.003,0.153-0.042,0.211-0.207,0.21
			c-1.148-0.007-2.297-0.001-3.445-0.007c-0.129,0-0.177,0.024-0.175,0.167c0.005,0.477-0.002,0.477,0.47,0.477
			c1.058-0.001,2.115,0,3.173-0.004c0.129,0,0.184,0.044,0.183,0.176c-0.002,1.052-0.002,2.103,0,3.155
			c0.001,0.142-0.058,0.185-0.197,0.185c-1.645-0.004-3.288-0.004-4.933,0c-0.161,0-0.214-0.052-0.21-0.209
			c0.008-0.374,0.01-0.75-0.002-1.124c-0.004-0.147,0.045-0.181,0.184-0.18c1.148,0.004,2.297-0.001,3.445,0.007
			c0.156,0.001,0.223-0.031,0.203-0.196c-0.018-0.156,0.063-0.37-0.031-0.454c-0.092-0.079-0.299-0.029-0.455-0.029
			c-1.052-0.001-2.104-0.003-3.155,0.003c-0.15,0.001-0.19-0.038-0.19-0.19c0.008-1.028,0.008-2.055,0.001-3.083
			c-0.001-0.158,0.031-0.218,0.207-0.216C22.079,0.05,22.901,0.044,23.723,0.044z"/>
		<path fill-rule="evenodd" clip-rule="evenodd" fill="#070707" d="M20.25,2.878c0,0.87-0.002,1.74,0.001,2.61
			c0.001,0.165-0.051,0.225-0.229,0.224c-1.19-0.009-2.381-0.007-3.572-0.002c-0.149,0.001-0.204-0.049-0.203-0.194
			c0.004-0.375,0.007-0.75-0.002-1.124c-0.004-0.152,0.045-0.197,0.198-0.195c0.707,0.008,1.414,0,2.121,0.008
			c0.152,0.001,0.19-0.042,0.19-0.192c-0.006-1.257-0.001-2.514-0.006-3.771c0-0.146,0.021-0.21,0.194-0.203
			c0.374,0.017,0.75,0.015,1.124,0.001c0.171-0.006,0.186,0.08,0.185,0.209C20.25,0.956,20.25,1.663,20.25,2.37
			C20.25,2.539,20.25,2.709,20.25,2.878z"/>
		<path fill-rule="evenodd" clip-rule="evenodd" fill="#FEFEFD" d="M22.447,35.844c-0.053-0.084-0.036-0.156-0.036-0.227
			c-0.001-1.012,0.002-2.02-0.005-3.029c-0.001-0.186,0.063-0.252,0.245-0.301c0.272-0.07,0.55-0.125,0.817-0.225
			c0.212-0.08,0.446-0.107,0.665-0.174c0.379-0.121,0.77-0.195,1.146-0.326c0.245-0.082,0.505-0.125,0.754-0.199
			c0.408-0.121,0.819-0.229,1.229-0.342c0.081-0.021,0.077-0.088,0.079-0.145c0.014-0.367,0.072-0.73,0.104-1.094
			c0.045-0.529,0.116-1.059,0.171-1.586c0.044-0.428,0.099-0.855,0.139-1.285c0.006-0.063,0.02-0.131-0.033-0.201
			c-0.064,0.063-0.147,0.059-0.229,0.061c-0.289,0.008-0.567,0.092-0.853,0.129c-0.289,0.037-0.574,0.105-0.866,0.133
			c-0.269,0.023-0.533,0.074-0.795,0.143c-0.051,0.014-0.106,0.018-0.16,0.025c-0.466,0.063-0.938,0.104-1.397,0.203
			c-0.263,0.055-0.534,0.039-0.792,0.127c-0.161,0.055-0.225-0.01-0.224-0.195c0.007-2.484,0.005-4.969,0.005-7.454
			c0-1.657,0-3.313,0-4.97c0-0.266,0-0.263,0.262-0.263c1.524,0,3.047,0,4.57,0c1.463,0,2.926,0,4.389,0
			c0.216,0,0.209,0.01,0.203,0.23c-0.015,0.428-0.093,0.848-0.106,1.277c-0.017,0.482-0.094,0.962-0.148,1.443
			c-0.043,0.357-0.045,0.357-0.418,0.357c-1.753,0-3.507,0.002-5.26-0.004c-0.151,0-0.191,0.04-0.19,0.191
			c0.005,1.801,0.006,3.603,0,5.404c-0.001,0.152,0.039,0.217,0.19,0.18c0.296-0.07,0.606-0.055,0.899-0.15
			c0.044-0.016,0.094-0.018,0.142-0.02c0.492-0.01,0.973-0.119,1.454-0.193c0.354-0.055,0.704-0.115,1.061-0.16
			c0.374-0.049,0.744-0.125,1.119-0.178c0.149-0.02,0.303-0.053,0.456-0.064c0.092-0.008,0.133,0.016,0.129,0.117
			c-0.025,0.516-0.081,1.027-0.166,1.537c-0.012,0.064-0.009,0.133-0.007,0.199c0.018,0.434-0.06,0.861-0.114,1.287
			c-0.039,0.299-0.035,0.6-0.075,0.896c-0.085,0.631-0.106,1.266-0.174,1.898c-0.069,0.645-0.119,1.289-0.169,1.936
			c-0.046,0.604-0.125,1.205-0.182,1.811c-0.026,0.281-0.044,0.561-0.061,0.842c-0.011,0.154-0.065,0.229-0.238,0.27
			c-0.245,0.057-0.487,0.139-0.73,0.211c-0.252,0.076-0.518,0.129-0.772,0.207c-0.359,0.107-0.725,0.189-1.084,0.305
			c-0.251,0.08-0.514,0.141-0.772,0.205c-0.25,0.064-0.496,0.145-0.745,0.215c-0.238,0.066-0.479,0.125-0.719,0.191
			c-0.369,0.104-0.739,0.209-1.106,0.318c-0.13,0.041-0.264,0.072-0.394,0.1c-0.29,0.064-0.569,0.16-0.851,0.25
			C22.683,35.793,22.547,35.742,22.447,35.844z"/>
		<path fill-rule="evenodd" clip-rule="evenodd" fill="#FEFEFD" d="M20.087,25.254c0,3.453,0,6.906,0,10.357
			c0,0.232,0.002,0.221-0.226,0.174c-0.465-0.094-0.918-0.236-1.375-0.363c-0.463-0.129-0.927-0.258-1.389-0.385
			c-0.37-0.105-0.748-0.199-1.118-0.301c-0.559-0.154-1.121-0.309-1.679-0.463c-0.365-0.1-0.727-0.223-1.103-0.293
			c-0.249-0.045-0.482-0.168-0.731-0.215c-0.261-0.047-0.506-0.141-0.761-0.203c-0.218-0.051-0.435-0.109-0.652-0.166
			c-0.077-0.02-0.099-0.072-0.099-0.15c0.001-1.076,0.002-2.15,0-3.229c0-0.113,0.054-0.117,0.138-0.096
			c0.263,0.07,0.526,0.143,0.79,0.213c0.367,0.104,0.734,0.201,1.1,0.305c0.371,0.104,0.742,0.209,1.113,0.307
			c0.265,0.07,0.528,0.15,0.796,0.209c0.249,0.057,0.493,0.133,0.739,0.205c0.335,0.098,0.681,0.162,1.009,0.287
			c0.056,0.023,0.095-0.002,0.097-0.066c0-0.061,0-0.121,0-0.184c-0.001-5.445,0-10.894-0.004-16.342
			c0-0.184,0.065-0.222,0.231-0.221c0.967,0.006,1.935,0.006,2.902,0c0.175-0.001,0.226,0.052,0.226,0.228
			C20.086,18.326,20.088,21.789,20.087,25.254z"/>
	</g>
</g>
</svg>
